# xmcd
#
# Track frame offsets:
#	150
#	11988
#	23137
#	33890
#	45348
#	56356
#	66169
#	76827
#	85825
#	95842
#	105560
#	117250
#	127440
#	140534
#	151934
#	164082
#	173098
#	183583
#	192988
#	205147
#	217603
#	227654
#	236558
#	248167
#	258309
#	268557
#	278871
#	287020
#	299549
#	312328
#	325036
#	337622
#
# Disc length: 4675 seconds
#
# Revision: 0
# Processed by: cddbd v1.5.2PL0 Copyright (c) Steve Scherf et al.
# Submitted via: EasyCDDAExtractor 15.3.0.1
#
DISCID=c8124120
DTITLE=Jones Grandpa - Make The Rafters Ring - Yodeling Hits
DYEAR=2011
DGENRE=Country
TTITLE0=Make The Rafters Ring
TTITLE1=Raining Here This Morning
TTITLE2=I've Just Been Gone Too Long
TTITLE3=My Darlin's Not My Darlin' Anymore
TTITLE4=Eastbound Train
TTITLE5=Count Your Blessings
TTITLE6=Banjo Sam
TTITLE7=Grandhog
TTITLE8=All Night Long
TTITLE9=Going 'Cross The Sea
TTITLE10=I Guess You Don't Remember Now
TTITLE11=Mighty Long Way To Travel
TTITLE12=Away Out On The Mountain
TTITLE13=My Carolina Sunshine Girl
TTITLE14=Hobo Bill
TTITLE15=Waiting For A Train
TTITLE16=T For Texas
TTITLE17=Peach Pickin' Time In Georgia
TTITLE18=My Little Lady
TTITLE19=You And My Old Guitar
TTITLE20=Brakeman's Blues
TTITLE21=Dear Old Sunny South
TTITLE22=Lullaby Yodel
TTITLE23=Tritzem Yodel
TTITLE24=Ladies Man
TTITLE25=Thing
TTITLE26=I Don't Love Nobody
TTITLE27=These Hills
TTITLE28=What Does The Deep Sea Say
TTITLE29=Tragic Romance
TTITLE30=I'm Tying The Leaves
TTITLE31=Oh Captain Captain
EXTD=
EXTT0=
EXTT1=
EXTT2=
EXTT3=
EXTT4=
EXTT5=
EXTT6=
EXTT7=
EXTT8=
EXTT9=
EXTT10=
EXTT11=
EXTT12=
EXTT13=
EXTT14=
EXTT15=
EXTT16=
EXTT17=
EXTT18=
EXTT19=
EXTT20=
EXTT21=
EXTT22=
EXTT23=
EXTT24=
EXTT25=
EXTT26=
EXTT27=
EXTT28=
EXTT29=
EXTT30=
EXTT31=
PLAYORDER=
